<svg width="44" height="54" viewBox="0 0 44 54" fill="none" xmlns="http://www.w3.org/2000/svg">
<mask id="path-1-inside-1_17_65" fill="white">
<path d="M21.7842 0C33.8322 0.104104 43.569 10.2887 43.5693 22.8379C43.5692 27.8877 41.2016 34.0951 37.0566 38.9658C30.9301 46.7499 24.4695 52.8429 21.7842 53.124C19.0989 52.8431 12.6393 46.7498 6.5127 38.9658C2.36766 34.095 0.000137095 27.8878 0 22.8379C0.000376531 10.2887 9.73613 0.104059 21.7842 0Z"/>
</mask>
<path d="M21.7842 0C33.8322 0.104104 43.569 10.2887 43.5693 22.8379C43.5692 27.8877 41.2016 34.0951 37.0566 38.9658C30.9301 46.7499 24.4695 52.8429 21.7842 53.124C19.0989 52.8431 12.6393 46.7498 6.5127 38.9658C2.36766 34.095 0.000137095 27.8878 0 22.8379C0.000376531 10.2887 9.73613 0.104059 21.7842 0Z" fill="#A2DFD9"/>
<path d="M21.7842 0L21.7937 -1.09996L21.7842 -1.10004L21.7747 -1.09996L21.7842 0ZM43.5693 22.8379L44.6693 22.8379V22.8379L43.5693 22.8379ZM37.0566 38.9658L36.2189 38.2529L36.2053 38.269L36.1923 38.2855L37.0566 38.9658ZM21.7842 53.124L21.6697 54.2181L21.7842 54.23L21.8987 54.218L21.7842 53.124ZM6.5127 38.9658L7.37707 38.2855L7.36406 38.269L7.35042 38.2529L6.5127 38.9658ZM0 22.8379L-1.1 22.8379V22.8379L0 22.8379ZM21.7842 0L21.7747 1.09996C33.1802 1.19851 42.469 10.853 42.4693 22.8379L43.5693 22.8379L44.6693 22.8379C44.6689 9.72435 34.4842 -0.990304 21.7937 -1.09996L21.7842 0ZM43.5693 22.8379L42.4693 22.8379C42.4692 27.5874 40.2217 33.5492 36.2189 38.2529L37.0566 38.9658L37.8944 39.6787C42.1815 34.6409 44.6692 28.188 44.6693 22.8379L43.5693 22.8379ZM37.0566 38.9658L36.1923 38.2855C33.1553 42.1441 30.0463 45.5693 27.3801 48.0537C26.0455 49.2973 24.8401 50.2881 23.8241 50.9777C22.7663 51.6956 22.0519 51.99 21.6696 52.03L21.7842 53.124L21.8987 54.218C22.8591 54.1175 23.9593 53.5448 25.0596 52.798C26.2017 52.0228 27.4978 50.9511 28.8799 49.6633C31.6469 47.0849 34.8314 43.5716 37.921 39.6461L37.0566 38.9658ZM21.7842 53.124L21.8986 52.03C21.5165 51.99 20.8022 51.6957 19.7445 50.9778C18.7287 50.2882 17.5234 49.2975 16.1889 48.0538C13.5229 45.5694 10.4141 42.1441 7.37707 38.2855L6.5127 38.9658L5.64832 39.6462C8.73789 43.5715 11.9223 47.0849 14.689 49.6633C16.0709 50.9511 17.3669 52.0229 18.5089 52.798C19.6091 53.5448 20.7093 54.1176 21.6697 54.2181L21.7842 53.124ZM6.5127 38.9658L7.35042 38.2529C3.34755 33.5492 1.10013 27.5875 1.1 22.8379L0 22.8379L-1.1 22.8379C-1.09985 28.188 1.38776 34.6409 5.67497 39.6787L6.5127 38.9658ZM0 22.8379L1.1 22.8379C1.10036 10.8529 10.3882 1.19847 21.7937 1.09996L21.7842 0L21.7747 -1.09996C9.08406 -0.99035 -1.09961 9.72439 -1.1 22.8379L0 22.8379Z" fill="#65BCB8" mask="url(#path-1-inside-1_17_65)"/>
<circle cx="22.5" cy="22.5" r="6.5" fill="white"/>
</svg>
