<svg width="44" height="54" viewBox="0 0 44 54" fill="none" xmlns="http://www.w3.org/2000/svg">
<mask id="path-1-inside-1_17_64" fill="white">
<path d="M21.7842 0C33.8323 0.104056 43.5681 10.2876 43.5684 22.8369C43.5684 27.8869 41.2009 34.0939 37.0557 38.9648C30.929 46.749 24.4694 52.8431 21.7842 53.124C19.0988 52.8429 12.6393 46.7489 6.5127 38.9648C2.36753 34.0939 0 27.8869 0 22.8369C0.000300768 10.2877 9.73616 0.104142 21.7842 0Z"/>
</mask>
<path d="M21.7842 0C33.8323 0.104056 43.5681 10.2876 43.5684 22.8369C43.5684 27.8869 41.2009 34.0939 37.0557 38.9648C30.929 46.749 24.4694 52.8431 21.7842 53.124C19.0988 52.8429 12.6393 46.7489 6.5127 38.9648C2.36753 34.0939 0 27.8869 0 22.8369C0.000300768 10.2877 9.73616 0.104142 21.7842 0Z" fill="#35C8BA"/>
<path d="M21.7842 0L21.7937 -1.09996L21.7842 -1.10004L21.7747 -1.09996L21.7842 0ZM43.5684 22.8369H44.6684V22.8369L43.5684 22.8369ZM37.0557 38.9648L36.218 38.2519L36.2043 38.268L36.1913 38.2845L37.0557 38.9648ZM21.7842 53.124L21.6696 54.218L21.7841 54.23L21.8986 54.2181L21.7842 53.124ZM6.5127 38.9648L7.37708 38.2845L7.36406 38.268L7.35042 38.2519L6.5127 38.9648ZM0 22.8369L-1.1 22.8369V22.8369H0ZM21.7842 0L21.7747 1.09996C33.1803 1.19847 42.4681 10.852 42.4684 22.8369L43.5684 22.8369L44.6684 22.8369C44.668 9.72328 34.4843 -0.990354 21.7937 -1.09996L21.7842 0ZM43.5684 22.8369H42.4684C42.4684 27.5867 40.2211 33.548 36.218 38.2519L37.0557 38.9648L37.8934 39.6777C42.1808 34.6397 44.6684 28.1872 44.6684 22.8369H43.5684ZM37.0557 38.9648L36.1913 38.2845C33.1542 42.1432 30.0454 45.5687 27.3794 48.0534C26.0449 49.2972 24.8397 50.288 23.8238 50.9777C22.7661 51.6957 22.0519 51.99 21.6697 52.03L21.7842 53.124L21.8986 54.2181C22.8591 54.1176 23.9593 53.5448 25.0595 52.7979C26.2015 52.0226 27.4975 50.9507 28.8794 49.6628C31.6461 47.0842 34.8305 43.5706 37.92 39.6452L37.0557 38.9648ZM21.7842 53.124L21.8987 52.03C21.5165 51.99 20.8022 51.6956 19.7445 50.9776C18.7286 50.2879 17.5234 49.2971 16.1889 48.0533C13.5229 45.5686 10.4141 42.1432 7.37708 38.2845L6.5127 38.9648L5.64831 39.6452C8.73787 43.5706 11.9222 47.0842 14.6889 49.6627C16.0708 50.9506 17.3668 52.0225 18.5088 52.7978C19.609 53.5447 20.7092 54.1175 21.6696 54.218L21.7842 53.124ZM6.5127 38.9648L7.35042 38.2519C3.34741 33.5481 1.1 27.5866 1.1 22.8369H0H-1.1C-1.1 28.1872 1.38765 34.6398 5.67498 39.6777L6.5127 38.9648ZM0 22.8369L1.1 22.8369C1.10029 10.852 10.3882 1.19855 21.7937 1.09996L21.7842 0L21.7747 -1.09996C9.08415 -0.990264 -1.09969 9.72332 -1.1 22.8369L0 22.8369Z" fill="#40AAA3" mask="url(#path-1-inside-1_17_64)"/>
<circle cx="21.5" cy="22.5" r="6.5" fill="white"/>
</svg>
