<svg width="32" height="26" viewBox="0 0 32 26" fill="none" xmlns="http://www.w3.org/2000/svg">
<path d="M0 4.46875C0 3.28356 0.46357 2.14692 1.28873 1.30887C2.11389 0.470813 3.23305 0 4.4 0H27.6C28.767 0 29.8861 0.470813 30.7113 1.30887C31.5364 2.14692 32 3.28356 32 4.46875V21.5313C32 22.1181 31.8862 22.6992 31.6651 23.2414C31.444 23.7835 31.1199 24.2762 30.7113 24.6911C30.3027 25.1061 29.8176 25.4353 29.2838 25.6598C28.75 25.8844 28.1778 26 27.6 26H4.4C3.82218 26 3.25003 25.8844 2.71619 25.6598C2.18236 25.4353 1.69731 25.1061 1.28873 24.6911C0.880153 24.2762 0.556051 23.7835 0.33493 23.2414C0.113809 22.6992 0 22.1181 0 21.5313V4.46875ZM4.4 2.4375C3.296 2.4375 2.4 3.3475 2.4 4.46875V21.5313C2.4 22.6525 3.296 23.5625 4.4 23.5625H27.6C28.704 23.5625 29.6 22.6525 29.6 21.5313V4.46875C29.6 3.3475 28.704 2.4375 27.6 2.4375H4.4ZM4.8 8.53125C4.8 7.41 5.696 6.5 6.8 6.5H15.6C16.704 6.5 17.6 7.41 17.6 8.53125V17.4688C17.6 18.59 16.704 19.5 15.6 19.5H6.8C5.696 19.5 4.8 18.59 4.8 17.4688V8.53125ZM19.2 7.71875C19.2 7.39552 19.3264 7.08552 19.5515 6.85696C19.7765 6.6284 20.0817 6.5 20.4 6.5H26C26.3183 6.5 26.6235 6.6284 26.8485 6.85696C27.0736 7.08552 27.2 7.39552 27.2 7.71875C27.2 8.04198 27.0736 8.35198 26.8485 8.58054C26.6235 8.8091 26.3183 8.9375 26 8.9375H20.4C20.0817 8.9375 19.7765 8.8091 19.5515 8.58054C19.3264 8.35198 19.2 8.04198 19.2 7.71875ZM20.4 11.375C20.0817 11.375 19.7765 11.5034 19.5515 11.732C19.3264 11.9605 19.2 12.2705 19.2 12.5938C19.2 12.917 19.3264 13.227 19.5515 13.4555C19.7765 13.6841 20.0817 13.8125 20.4 13.8125H26C26.3183 13.8125 26.6235 13.6841 26.8485 13.4555C27.0736 13.227 27.2 12.917 27.2 12.5938C27.2 12.2705 27.0736 11.9605 26.8485 11.732C26.6235 11.5034 26.3183 11.375 26 11.375H20.4ZM19.2 17.4688C19.2 17.1455 19.3264 16.8355 19.5515 16.607C19.7765 16.3784 20.0817 16.25 20.4 16.25H26C26.3183 16.25 26.6235 16.3784 26.8485 16.607C27.0736 16.8355 27.2 17.1455 27.2 17.4688C27.2 17.792 27.0736 18.102 26.8485 18.3305C26.6235 18.5591 26.3183 18.6875 26 18.6875H20.4C20.0817 18.6875 19.7765 18.5591 19.5515 18.3305C19.3264 18.102 19.2 17.792 19.2 17.4688Z" fill="#75757A"/>
</svg>
