<svg width="28" height="32" viewBox="0 0 28 32" fill="none" xmlns="http://www.w3.org/2000/svg">
<g clip-path="url(#clip0_124_800)">
<path d="M8.7065 10.7974L8.89317 10.7814C8.96082 10.7742 9.02553 10.7499 9.08117 10.7107L9.07983 10.7121C9.2585 11.3281 9.47717 11.9761 9.7505 12.6547C10.1012 13.5427 10.4465 14.2721 10.8332 14.9761L10.7798 14.8694C10.7478 15.3547 10.7092 15.8534 10.6585 16.3361C10.6358 16.6207 10.578 16.9015 10.4865 17.1721L10.4932 17.1481C10.4772 17.1547 10.4545 19.9214 10.4545 19.9214C10.4555 20.7797 10.745 21.6128 11.2765 22.2868C11.808 22.9607 12.5507 23.4364 13.3852 23.6374L13.4118 23.6427C13.4483 23.546 13.5134 23.4628 13.5985 23.4042C13.6835 23.3456 13.7845 23.3143 13.8878 23.3147H14.6532C14.7554 23.3161 14.8549 23.3476 14.9393 23.4052C15.0237 23.4628 15.0893 23.544 15.1278 23.6387L15.1292 23.6427C15.9706 23.4475 16.7216 22.9742 17.2609 22.2995C17.8002 21.6247 18.0962 20.7878 18.1012 19.9241C18.1012 19.9241 18.0545 17.1681 18.0305 17.1494C17.9498 16.892 17.8953 16.6271 17.8678 16.3587L17.8665 16.3387C17.8198 15.8534 17.7892 15.3667 17.7452 14.8721C18.0745 14.2774 18.4198 13.5494 18.7238 12.7987L18.7745 12.6574C19.0478 11.9787 19.2598 11.3321 19.4452 10.7147C19.5 10.7535 19.5638 10.7778 19.6305 10.7854H19.6318L19.8198 10.8014C20.0465 10.8254 20.2465 10.6387 20.2652 10.3494L20.4678 7.77472V7.77206C20.4677 7.66845 20.4299 7.56842 20.3615 7.49065C20.293 7.41288 20.1986 7.36266 20.0958 7.34939H20.0705C20.2498 6.00876 20.1398 4.64526 19.7478 3.35072L19.7652 3.41872C19.3891 2.58368 18.8171 1.85169 18.0978 1.28486C17.3785 0.718031 16.533 0.333097 15.6332 0.162723L15.5985 0.15739C15.1621 0.070883 14.7192 0.020932 14.2745 0.00805664H14.2465C13.7812 0.0164696 13.3178 0.0691516 12.8625 0.16539L12.9105 0.15739C12.0113 0.324846 11.1653 0.704989 10.443 1.26608C9.72071 1.82716 9.14313 2.55291 8.7585 3.38272L8.74383 3.41872C8.36008 4.70862 8.25778 6.06588 8.44383 7.39872L8.4385 7.34939C8.33547 7.36054 8.24017 7.40927 8.1708 7.48626C8.10144 7.56324 8.06288 7.6631 8.0625 7.76672V7.77606L8.26517 10.3507C8.28383 10.6467 8.4865 10.8254 8.70517 10.8014L8.7065 10.7974Z" fill="white"/>
<path d="M28.5548 27.8374C28.4615 23.7841 28.0561 22.8668 27.8375 22.2454C27.7508 21.9961 27.6801 20.3108 24.8961 19.2174C23.1895 18.5454 20.9868 18.5321 19.1228 17.7441V19.9361C19.1214 21.06 18.7289 22.1483 18.0126 23.0144C17.2964 23.8805 16.3011 24.4704 15.1975 24.6828L15.1668 24.6881C15.1468 24.8064 15.0859 24.9139 14.9948 24.9918C14.9037 25.0698 14.7881 25.1133 14.6681 25.1148H14.6441V26.7681C14.6441 27.5439 14.9523 28.288 15.5009 28.8366C16.0495 29.3852 16.7936 29.6934 17.5695 29.6934C18.3453 29.6934 19.0894 29.3852 19.638 28.8366C20.1866 28.288 20.4948 27.5439 20.4948 26.7681V25.6134C20.0921 25.5544 19.725 25.3498 19.463 25.0384C19.201 24.727 19.0621 24.3303 19.0728 23.9235C19.0834 23.5167 19.2428 23.1278 19.5208 22.8305C19.7988 22.5333 20.176 22.3482 20.5812 22.3103C20.9865 22.2724 21.3915 22.3843 21.7198 22.6249C22.0481 22.8654 22.2768 23.218 22.3627 23.6158C22.4486 24.0136 22.3858 24.4291 22.186 24.7837C21.9863 25.1383 21.6635 25.4074 21.2788 25.5401L21.2668 25.5441V26.8308C21.2668 27.8117 20.8771 28.7525 20.1835 29.4461C19.4898 30.1398 18.5491 30.5294 17.5681 30.5294C16.5872 30.5294 15.6464 30.1398 14.9528 29.4461C14.2591 28.7525 13.8695 27.8117 13.8695 26.8308V26.7641V26.7668V25.0988C13.7552 25.0912 13.6469 25.0452 13.5621 24.9682C13.4774 24.8912 13.4212 24.7878 13.4028 24.6748V24.6721C12.2982 24.4614 11.3012 23.8732 10.5826 23.0082C9.86407 22.1432 9.46865 21.0553 9.46412 19.9308V17.7214C7.59212 18.5254 5.37612 18.5414 3.66012 19.2148C0.86812 20.3068 0.804121 21.9881 0.718787 22.2414C0.505454 22.8654 0.0947874 23.7788 0.00145412 27.8348C-0.0145459 28.3681 0.00145419 29.1854 1.60945 29.9001C5.11079 31.2734 9.62145 31.7001 14.0681 32.0068H14.4948C18.9508 31.7028 23.4548 31.2774 26.9535 29.9001C28.5548 29.1894 28.5695 28.3761 28.5548 27.8374ZM8.98012 26.1841H7.31879V27.8521H6.13212V26.1894H4.47079V25.0028H6.13212V23.3414H7.31879V25.0028H8.98012V26.1841Z" fill="white"/>
<path d="M21.6335 23.9534C21.6334 23.7155 21.5387 23.486 21.3704 23.3179C21.202 23.1497 20.9738 23.0553 20.7359 23.0554C20.4979 23.0555 20.2698 23.1501 20.1016 23.3184C19.9334 23.4866 19.8389 23.7148 19.8389 23.9528C19.8389 24.1907 19.9334 24.4189 20.1016 24.5871C20.2698 24.7554 20.4979 24.85 20.7359 24.8501C20.9738 24.8502 21.202 24.7558 21.3704 24.5876C21.5387 24.4195 21.6334 24.1913 21.6335 23.9534Z" fill="white"/>
</g>
<defs>
<clipPath id="clip0_124_800">
<rect width="28" height="32" fill="white"/>
</clipPath>
</defs>
</svg>
