<svg width="28" height="37" viewBox="0 0 28 37" fill="none" xmlns="http://www.w3.org/2000/svg">
<path fill-rule="evenodd" clip-rule="evenodd" d="M5.54663 16.3792C4.67931 8.59395 9.22153 3.11829 17.7397 0C12.5239 6.77669 22.1865 14.1174 22.72 21.1537C23.9688 19.0201 24.6782 16.1733 24.8182 12.3657C31.2054 22.398 25.9091 38.7951 11.8533 36.4378C10.5627 36.2229 9.31988 35.8141 8.18731 35.2054C3.06093 32.466 0 26.495 0 20.7926C0 17.1581 1.55282 13.9144 3.56164 11.3363C3.82988 13.8607 4.40213 15.7436 5.54663 16.3792Z" fill="#EC6F59"/>
<path fill-rule="evenodd" clip-rule="evenodd" d="M10.0948 27.626C8.64626 23.881 8.84595 17.8324 12.9024 15.7108C12.9322 22.6636 19.7723 23.5498 18.5056 30.9711C19.6739 29.6462 20.2641 27.5275 20.3684 25.8535C22.2222 30.1027 20.7678 33.5015 18.1241 35.2322C10.0858 40.496 3.16521 29.8252 7.76703 23.9765C7.90711 25.2835 9.50463 27.3007 10.0948 27.626Z" fill="#FAD15C"/>
</svg>
