<svg width="42" height="42" viewBox="0 0 42 42" fill="none" xmlns="http://www.w3.org/2000/svg">
<path fill-rule="evenodd" clip-rule="evenodd" d="M5.55962 21.875C5.79026 21.9851 6.10169 22.1022 6.49819 22.221C7.3904 22.4883 8.61629 22.7359 10.0982 22.9463C13.0558 23.3663 16.9375 23.625 21 23.625C25.0625 23.625 28.9442 23.3663 31.9018 22.9463C33.3837 22.7359 34.6096 22.4883 35.5018 22.221C35.8983 22.1022 36.2097 21.9851 36.4404 21.875C36.3118 21.8137 36.1517 21.7471 35.9562 21.6772C35.1539 21.3906 33.9544 21.1179 32.4406 20.8835C29.4261 20.4169 25.316 20.125 21 20.125C16.684 20.125 12.5739 20.4169 9.55941 20.8835C8.04557 21.1179 6.84606 21.3906 6.04382 21.6772C5.84825 21.7471 5.68815 21.8137 5.55962 21.875ZM3.65298 22.486C3.56168 22.3109 3.5 22.105 3.5 21.875C3.5 21.2679 3.90992 20.8635 4.21616 20.6396C4.54856 20.3966 4.98253 20.1981 5.45504 20.0292C6.41085 19.6878 7.73663 19.3949 9.29172 19.1541C12.4151 18.6707 16.6175 18.375 21 18.375C25.3825 18.375 29.5849 18.6707 32.7083 19.1541C34.2634 19.3949 35.5891 19.6878 36.545 20.0292C37.0175 20.1981 37.4514 20.3966 37.7838 20.6396C38.0901 20.8635 38.5 21.2679 38.5 21.875C38.5 22.105 38.4383 22.3109 38.347 22.486C37.6554 24.4972 33.4534 35 21 35C8.54664 35 4.34459 24.4972 3.65298 22.486Z" fill="#22202A"/>
<path fill-rule="evenodd" clip-rule="evenodd" d="M12.4652 7.30033C12.7826 6.93592 13.3353 6.8978 13.6997 7.21519C14.0487 7.5192 14.3363 7.8532 14.5403 8.26112C14.7442 8.66905 14.8389 9.09952 14.8727 9.56116C14.953 10.6587 14.1499 11.2772 13.7483 11.5865C13.7298 11.6008 13.7122 11.6143 13.6956 11.6272C13.1659 12.0388 13.125 12.1327 13.125 12.25C13.125 12.7175 13.2396 13.0811 13.4266 13.3615C13.6135 13.6418 13.905 13.8875 14.3365 14.0673C14.7826 14.2532 14.9936 14.7655 14.8077 15.2116C14.6218 15.6576 14.1095 15.8686 13.6635 15.6827C12.9577 15.3886 12.3742 14.9378 11.9705 14.3322C11.5667 13.7265 11.375 13.0146 11.375 12.25C11.375 11.2 12.155 10.603 12.5529 10.2983C12.5774 10.2796 12.6005 10.2619 12.6219 10.2453C13.1387 9.84378 13.1333 9.77024 13.1274 9.68983L13.1273 9.68887C13.1054 9.38846 13.0506 9.19485 12.975 9.04375C12.8995 8.89264 12.7775 8.73266 12.5503 8.53483C12.1859 8.21745 12.1478 7.66474 12.4652 7.30033Z" fill="#22202A"/>
<path fill-rule="evenodd" clip-rule="evenodd" d="M20.3402 7.30033C20.6576 6.93592 21.2103 6.8978 21.5747 7.21519C21.9237 7.5192 22.2113 7.8532 22.4153 8.26112C22.6192 8.66905 22.7139 9.09952 22.7477 9.56116C22.828 10.6587 22.0249 11.2772 21.6233 11.5865C21.6048 11.6008 21.5872 11.6143 21.5706 11.6272C21.0409 12.0388 21 12.1327 21 12.25C21 12.7175 21.1146 13.0811 21.3016 13.3615C21.4885 13.6418 21.78 13.8875 22.2115 14.0673C22.6576 14.2532 22.8686 14.7655 22.6827 15.2116C22.4968 15.6576 21.9845 15.8686 21.5385 15.6827C20.8327 15.3886 20.2492 14.9378 19.8455 14.3322C19.4417 13.7265 19.25 13.0146 19.25 12.25C19.25 11.2 20.03 10.603 20.4279 10.2983C20.4524 10.2796 20.4755 10.2619 20.4969 10.2453C21.0137 9.84378 21.0083 9.77024 21.0024 9.68983L21.0023 9.68887C20.9804 9.38846 20.9256 9.19485 20.85 9.04375C20.7745 8.89264 20.6525 8.73266 20.4253 8.53483C20.0609 8.21745 20.0228 7.66474 20.3402 7.30033Z" fill="#22202A"/>
<path fill-rule="evenodd" clip-rule="evenodd" d="M28.2152 7.30033C28.5326 6.93592 29.0853 6.8978 29.4497 7.21519C29.7987 7.5192 30.0863 7.8532 30.2903 8.26112C30.4942 8.66905 30.5889 9.09952 30.6227 9.56116C30.703 10.6587 29.8999 11.2772 29.4983 11.5865C29.4798 11.6008 29.4622 11.6143 29.4456 11.6272C28.9159 12.0388 28.875 12.1327 28.875 12.25C28.875 12.7175 28.9896 13.0811 29.1766 13.3615C29.3635 13.6418 29.655 13.8875 30.0865 14.0673C30.5326 14.2532 30.7436 14.7655 30.5577 15.2116C30.3718 15.6576 29.8595 15.8686 29.4135 15.6827C28.7077 15.3886 28.1242 14.9378 27.7205 14.3322C27.3167 13.7265 27.125 13.0146 27.125 12.25C27.125 11.2 27.905 10.603 28.3029 10.2983C28.3274 10.2796 28.3505 10.2619 28.3719 10.2453C28.8887 9.84378 28.8833 9.77024 28.8774 9.68983L28.8773 9.68887C28.8554 9.38846 28.8006 9.19485 28.725 9.04375C28.6495 8.89264 28.5275 8.73266 28.3003 8.53483C27.9359 8.21745 27.8978 7.66474 28.2152 7.30033Z" fill="#22202A"/>
</svg>
