<svg width="42" height="42" viewBox="0 0 42 42" fill="none" xmlns="http://www.w3.org/2000/svg">
<path d="M4.375 16.3428C4.375 10.749 8.63633 6.125 14.007 6.125C16.7796 6.125 19.2584 7.36727 21.0003 9.33331C22.7455 7.36677 25.2348 6.125 27.993 6.125C33.3637 6.125 37.625 10.749 37.625 16.3428C37.625 17.5892 37.4588 18.8579 37.1475 20.125H31.8624L29.9229 18.1855C29.2895 17.552 28.2216 17.7253 27.8209 18.5266L26.0103 22.1479L24.6089 20.7465C24.0354 20.173 23.0842 20.2517 22.6128 20.9117L19.6661 25.037L17.7335 16.6624C17.4632 15.491 15.8912 15.2692 15.3073 16.3201L12.1404 22.0205L10.6277 20.0036C10.1484 19.3646 9.21437 19.2982 8.64959 19.863L7.51256 21H4.94951C4.57505 19.5051 4.375 17.9487 4.375 16.3428Z" fill="#22202A"/>
<path d="M5.47613 22.75C7.84699 29.4787 13.783 34.7669 20.6898 37.3853C20.8897 37.4611 21.1103 37.4611 21.3102 37.3853C25.8526 35.6633 29.9168 32.4578 32.8474 28.6828C34.4924 26.5639 35.7981 24.2418 36.6259 21.875H31.6812C31.3331 21.875 30.9993 21.7367 30.7531 21.4906L29.1147 19.8521L27.3041 23.4734C26.9034 24.2747 25.8355 24.448 25.2021 23.8145L23.7367 22.3491L20.5261 26.8439C19.8689 27.764 18.4334 27.4779 18.1792 26.3761L16.2843 18.165L13.3425 23.4602C12.8807 24.2914 11.7158 24.371 11.1452 23.6103L9.53033 21.4571L8.62186 22.3656C8.37572 22.6117 8.04188 22.75 7.69378 22.75H5.47613Z" fill="#22202A"/>
</svg>
