<svg width="42" height="42" viewBox="0 0 42 42" fill="none" xmlns="http://www.w3.org/2000/svg">
<path fill-rule="evenodd" clip-rule="evenodd" d="M20.0633 7H21.9368C23.1216 6.99997 24.0987 6.99995 24.8719 7.10391C25.6838 7.21306 26.4008 7.45104 26.9749 8.02513C27.549 8.59923 27.7869 9.31622 27.8961 10.1281C28.0001 10.9014 28 11.8784 28 13.0633V13.125L28.064 13.125C29.6595 13.125 30.9456 13.125 31.957 13.2609C33.0072 13.4021 33.8914 13.7042 34.5936 14.4064C35.2958 15.1086 35.5979 15.9928 35.7391 17.043C35.875 18.0544 35.875 19.3404 35.875 20.9359V27.1891C35.875 28.7846 35.875 30.0706 35.7391 31.082C35.5979 32.1322 35.2958 33.0164 34.5936 33.7186C33.8914 34.4208 33.0072 34.7229 31.957 34.8641C30.9456 35.0001 29.6595 35 28.064 35H13.936C12.3405 35 11.0544 35.0001 10.043 34.8641C8.99283 34.7229 8.10865 34.4208 7.40641 33.7186C6.70417 33.0164 6.40213 32.1322 6.26095 31.082C6.12496 30.0706 6.12498 28.7846 6.125 27.1891V20.936C6.12498 19.3405 6.12496 18.0544 6.26095 17.043C6.40213 15.9928 6.70417 15.1086 7.40641 14.4064C8.10865 13.7042 8.99283 13.4021 10.043 13.2609C11.0544 13.125 12.3405 13.125 13.936 13.125L14 13.125L14 13.0633C14 11.8784 13.9999 10.9014 14.1039 10.1281C14.2131 9.31622 14.451 8.59923 15.0251 8.02513C15.5992 7.45104 16.3162 7.21306 17.1281 7.10391C17.9013 6.99995 18.8784 6.99997 20.0633 7ZM15.75 13.125H26.25C26.25 11.8628 26.2481 11.0042 26.1617 10.3613C26.0786 9.74346 25.9322 9.45732 25.7374 9.26257C25.5427 9.06782 25.2565 8.92137 24.6387 8.83831C23.9958 8.75186 23.1372 8.75 21.875 8.75H20.125C18.8628 8.75 18.0042 8.75186 17.3613 8.83831C16.7435 8.92137 16.4573 9.06782 16.2626 9.26257C16.0678 9.45732 15.9214 9.74346 15.8383 10.3613C15.7519 11.0042 15.75 11.8628 15.75 13.125ZM19.0313 20.3438C19.0313 19.7322 19.0313 19.4264 19.1312 19.1852C19.2644 18.8636 19.5199 18.6081 19.8415 18.4749C20.0827 18.375 20.3885 18.375 21 18.375C21.6115 18.375 21.9173 18.375 22.1585 18.4749C22.4801 18.6081 22.7356 18.8636 22.8688 19.1852C22.9688 19.4264 22.9688 19.7322 22.9688 20.3438V21.5933C22.9688 21.6229 22.9688 21.6378 22.978 21.647C22.9872 21.6563 23.0021 21.6563 23.0317 21.6563H24.2812C24.8928 21.6563 25.1986 21.6563 25.4398 21.7562C25.7614 21.8894 26.0169 22.1449 26.1501 22.4665C26.25 22.7077 26.25 23.0135 26.25 23.625C26.25 24.2366 26.25 24.5423 26.1501 24.7835C26.0169 25.1051 25.7614 25.3606 25.4398 25.4938C25.1986 25.5938 24.8928 25.5938 24.2812 25.5938H23.0317C23.0021 25.5938 22.9872 25.5938 22.978 25.603C22.9688 25.6122 22.9688 25.6271 22.9688 25.6568V26.9063C22.9688 27.5178 22.9688 27.8236 22.8688 28.0648C22.7356 28.3864 22.4801 28.6419 22.1585 28.7751C21.9173 28.875 21.6115 28.875 21 28.875C20.3885 28.875 20.0827 28.875 19.8415 28.7751C19.5199 28.6419 19.2644 28.3864 19.1312 28.0648C19.0313 27.8236 19.0313 27.5178 19.0313 26.9063V25.6568C19.0313 25.6271 19.0313 25.6122 19.022 25.603C19.0128 25.5938 18.9979 25.5938 18.9683 25.5938H17.7188C17.1072 25.5938 16.8014 25.5938 16.5602 25.4938C16.2386 25.3606 15.9831 25.1051 15.8499 24.7835C15.75 24.5423 15.75 24.2365 15.75 23.625C15.75 23.0135 15.75 22.7077 15.8499 22.4665C15.9831 22.1449 16.2386 21.8894 16.5602 21.7562C16.8014 21.6563 17.1072 21.6563 17.7188 21.6563H18.9683C18.9979 21.6563 19.0128 21.6563 19.022 21.647C19.0313 21.6378 19.0313 21.6229 19.0313 21.5933V20.3438Z" fill="#22202A"/>
</svg>
