<svg width="42" height="42" viewBox="0 0 42 42" fill="none" xmlns="http://www.w3.org/2000/svg">
<path fill-rule="evenodd" clip-rule="evenodd" d="M30.3891 8.49933C28.1506 6.55127 24.7567 6.78674 22.8087 9.02526L17.0665 15.6236C18.1114 17.3968 19.0613 18.6705 20.1431 19.6849C21.8041 18.3203 23.9317 17.5 26.2497 17.5C27.3001 17.5 28.3127 17.6686 29.2608 17.9807L30.9151 16.0798C32.8631 13.8413 32.6276 10.4474 30.3891 8.49933ZM7.81628 23.5873L21.4885 7.87644C24.0711 4.90884 28.5703 4.59668 31.5379 7.17921C34.5056 9.76174 34.8177 14.261 32.2352 17.2286L29.7764 20.054L29.1981 19.8203C28.2886 19.4528 27.2939 19.25 26.2497 19.25C24.0748 19.25 22.1072 20.1305 20.6812 21.5565C19.2551 22.9826 18.3747 24.9502 18.3747 27.125C18.3747 28.5571 18.7561 29.8975 19.4224 31.0528L19.7343 31.5935L19.3245 32.0644C17.9974 33.5893 16.2546 34.7896 14.3455 35.2067C12.4002 35.6317 10.3405 35.2267 8.51352 33.6367C5.54591 31.0542 5.23374 26.5549 7.81628 23.5873Z" fill="#22202A"/>
<path fill-rule="evenodd" clip-rule="evenodd" d="M28.7776 9.81865C28.8983 9.35072 28.6168 8.87352 28.1489 8.75281C25.3681 8.03541 23.6717 9.98724 22.995 10.7657C22.9847 10.7776 22.9746 10.7893 22.9647 10.8006C22.6475 11.1651 22.6858 11.7178 23.0503 12.0351C23.4149 12.3523 23.9676 12.314 24.2848 11.9494C24.9967 11.1314 26.0256 10.0123 27.7117 10.4473C28.1796 10.568 28.6568 10.2866 28.7776 9.81865Z" fill="#22202A"/>
<path fill-rule="evenodd" clip-rule="evenodd" d="M26.25 19.25C21.9008 19.25 18.375 22.7758 18.375 27.125C18.375 31.4742 21.9008 35 26.25 35C30.5992 35 34.125 31.4742 34.125 27.125C34.125 22.7758 30.5992 19.25 26.25 19.25ZM16.625 27.125C16.625 21.8093 20.9343 17.5 26.25 17.5C31.5657 17.5 35.875 21.8093 35.875 27.125C35.875 32.4407 31.5657 36.75 26.25 36.75C20.9343 36.75 16.625 32.4407 16.625 27.125Z" fill="#22202A"/>
<path fill-rule="evenodd" clip-rule="evenodd" d="M19.4882 28.9367C19.3631 28.4699 19.6401 27.9901 20.1069 27.8651L31.9395 24.6945C32.4063 24.5695 32.8861 24.8465 33.0111 25.3133C33.1362 25.78 32.8592 26.2598 32.3924 26.3849L20.5598 29.5554C20.0931 29.6805 19.6133 29.4035 19.4882 28.9367Z" fill="#22202A"/>
</svg>
