<svg width="32" height="32" viewBox="0 0 32 32" fill="none" xmlns="http://www.w3.org/2000/svg">
<path d="M7.80033 22.8C8.93366 21.9334 10.2003 21.25 11.6003 20.75C13.0003 20.25 14.467 20 16.0003 20C17.5337 20 19.0003 20.25 20.4003 20.75C21.8003 21.25 23.067 21.9334 24.2003 22.8C24.9781 21.8889 25.5837 20.8556 26.017 19.7C26.4503 18.5445 26.667 17.3111 26.667 16C26.667 13.0445 25.6281 10.5278 23.5503 8.45002C21.4725 6.37224 18.9559 5.33335 16.0003 5.33335C13.0448 5.33335 10.5281 6.37224 8.45033 8.45002C6.37255 10.5278 5.33366 13.0445 5.33366 16C5.33366 17.3111 5.55033 18.5445 5.98366 19.7C6.41699 20.8556 7.02255 21.8889 7.80033 22.8ZM16.0003 17.3334C14.6892 17.3334 13.5837 16.8834 12.6837 15.9834C11.7837 15.0834 11.3337 13.9778 11.3337 12.6667C11.3337 11.3556 11.7837 10.25 12.6837 9.35002C13.5837 8.45002 14.6892 8.00002 16.0003 8.00002C17.3114 8.00002 18.417 8.45002 19.317 9.35002C20.217 10.25 20.667 11.3556 20.667 12.6667C20.667 13.9778 20.217 15.0834 19.317 15.9834C18.417 16.8834 17.3114 17.3334 16.0003 17.3334ZM16.0003 29.3334C14.1559 29.3334 12.4225 28.9834 10.8003 28.2834C9.1781 27.5834 7.76699 26.6334 6.56699 25.4334C5.36699 24.2334 4.41699 22.8222 3.71699 21.2C3.01699 19.5778 2.66699 17.8445 2.66699 16C2.66699 14.1556 3.01699 12.4222 3.71699 10.8C4.41699 9.1778 5.36699 7.76669 6.56699 6.56669C7.76699 5.36669 9.1781 4.41669 10.8003 3.71669C12.4225 3.01669 14.1559 2.66669 16.0003 2.66669C17.8448 2.66669 19.5781 3.01669 21.2003 3.71669C22.8225 4.41669 24.2337 5.36669 25.4337 6.56669C26.6337 7.76669 27.5837 9.1778 28.2837 10.8C28.9837 12.4222 29.3337 14.1556 29.3337 16C29.3337 17.8445 28.9837 19.5778 28.2837 21.2C27.5837 22.8222 26.6337 24.2334 25.4337 25.4334C24.2337 26.6334 22.8225 27.5834 21.2003 28.2834C19.5781 28.9834 17.8448 29.3334 16.0003 29.3334Z" fill="#1D1B20"/>
</svg>
