<svg width="23" height="24" viewBox="0 0 23 24" fill="none" xmlns="http://www.w3.org/2000/svg">
<path d="M14.2669 5.38345C11.7818 2.8984 7.75175 2.8984 5.2667 5.38345C2.78165 7.86849 2.78165 11.8986 5.2667 14.3836C7.46813 16.5851 10.8824 16.8336 13.3593 15.1346L16.4575 18.6001C16.9842 19.1917 17.8999 19.216 18.4591 18.6568L18.5401 18.5758C19.0992 18.0167 19.0749 17.101 18.4834 16.5743L15.0178 13.4761C16.7195 10.9964 16.4683 7.58488 14.2669 5.38345ZM12.7218 12.8386C11.0904 14.4701 8.44324 14.4701 6.81175 12.8386C5.18026 11.2071 5.18026 8.55999 6.81175 6.9285C8.44324 5.29701 11.0904 5.29701 12.7218 6.9285C14.356 8.56269 14.3533 11.2071 12.7218 12.8386Z" fill="#75757A"/>
</svg>
