<svg width="28" height="25" viewBox="0 0 28 25" fill="none" xmlns="http://www.w3.org/2000/svg">
<mask id="path-1-inside-1_17_55" fill="white">
<path d="M27.5133 12.8318C27.9172 13.2244 27.9172 13.8731 27.5133 14.2657L25.4393 16.2822C25.1229 16.5899 24.619 16.5899 24.3025 16.2821V16.2821C23.7857 15.7795 22.9187 16.1457 22.9187 16.8667V23.9237C22.9187 24.476 22.471 24.9237 21.9187 24.9237H5.75957C5.20729 24.9237 4.75957 24.476 4.75957 23.9237V16.8645C4.75957 16.1947 3.95412 15.8545 3.47398 16.3215V16.3215C3.18005 16.6073 2.71204 16.6074 2.41799 16.3217L0.303117 14.2667C-0.100964 13.8741 -0.10105 13.2253 0.302927 12.8325L10.5281 2.89151L13.2119 0.282919C13.6 -0.0943393 14.2179 -0.0943016 14.606 0.283004L27.5133 12.8318ZM13.0887 19.0995C12.5364 19.0995 12.0887 19.5472 12.0887 20.0995V23.9228C12.0887 24.475 12.5364 24.9228 13.0887 24.9228H14.5945C15.1468 24.9228 15.5945 24.475 15.5945 23.9228V20.0995C15.5945 19.5472 15.1468 19.0995 14.5945 19.0995H13.0887Z"/>
</mask>
<path d="M27.5133 12.8318C27.9172 13.2244 27.9172 13.8731 27.5133 14.2657L25.4393 16.2822C25.1229 16.5899 24.619 16.5899 24.3025 16.2821V16.2821C23.7857 15.7795 22.9187 16.1457 22.9187 16.8667V23.9237C22.9187 24.476 22.471 24.9237 21.9187 24.9237H5.75957C5.20729 24.9237 4.75957 24.476 4.75957 23.9237V16.8645C4.75957 16.1947 3.95412 15.8545 3.47398 16.3215V16.3215C3.18005 16.6073 2.71204 16.6074 2.41799 16.3217L0.303117 14.2667C-0.100964 13.8741 -0.10105 13.2253 0.302927 12.8325L10.5281 2.89151L13.2119 0.282919C13.6 -0.0943393 14.2179 -0.0943016 14.606 0.283004L27.5133 12.8318ZM13.0887 19.0995C12.5364 19.0995 12.0887 19.5472 12.0887 20.0995V23.9228C12.0887 24.475 12.5364 24.9228 13.0887 24.9228H14.5945C15.1468 24.9228 15.5945 24.475 15.5945 23.9228V20.0995C15.5945 19.5472 15.1468 19.0995 14.5945 19.0995H13.0887Z" fill="#DBDBDB"/>
<path d="M10.5281 2.89151L7.74017 0.0231833L7.73983 0.0235071L10.5281 2.89151ZM13.2119 0.282919L15.9999 3.15124L13.2119 0.282919ZM14.606 0.283004L11.8177 3.15099L14.606 0.283004ZM0.303117 14.2667L-2.48442 17.1354L0.303117 14.2667ZM0.302927 12.8325L-2.48536 9.96452L0.302927 12.8325ZM2.41799 16.3217L-0.369544 19.1905L2.41799 16.3217ZM25.4393 16.2822L22.651 13.4143L25.4393 16.2822ZM27.5133 14.2657L30.3017 17.1337L27.5133 14.2657ZM27.5133 12.8318L24.725 15.6997L27.5133 12.8318ZM27.5133 14.2657L24.725 11.3978L22.651 13.4143L25.4393 16.2822L28.2277 19.1501L30.3017 17.1337L27.5133 14.2657ZM22.9187 16.8667H18.9187V23.9237H22.9187H26.9187V16.8667H22.9187ZM21.9187 24.9237V20.9237H5.75957V24.9237V28.9237H21.9187V24.9237ZM4.75957 23.9237H8.75957V16.8645H4.75957H0.75957V23.9237H4.75957ZM2.41799 16.3217L5.20552 13.453L3.09065 11.398L0.303117 14.2667L-2.48442 17.1354L-0.369544 19.1905L2.41799 16.3217ZM0.302927 12.8325L3.09122 15.7005L13.3164 5.75951L10.5281 2.89151L7.73983 0.0235071L-2.48536 9.96452L0.302927 12.8325ZM10.5281 2.89151L13.3161 5.75983L15.9999 3.15124L13.2119 0.282919L10.424 -2.58541L7.74017 0.0231833L10.5281 2.89151ZM14.606 0.283004L11.8177 3.15099L24.725 15.6997L27.5133 12.8318L30.3016 9.96377L17.3943 -2.58498L14.606 0.283004ZM12.0887 20.0995H8.08867V23.9228H12.0887H16.0887V20.0995H12.0887ZM13.0887 24.9228V28.9228H14.5945V24.9228V20.9228H13.0887V24.9228ZM15.5945 23.9228H19.5945V20.0995H15.5945H11.5945V23.9228H15.5945ZM14.5945 19.0995V15.0995H13.0887V19.0995V23.0995H14.5945V19.0995ZM15.5945 20.0995H19.5945C19.5945 17.3381 17.356 15.0995 14.5945 15.0995V19.0995V23.0995C12.9377 23.0995 11.5945 21.7564 11.5945 20.0995H15.5945ZM14.5945 24.9228V28.9228C17.356 28.9228 19.5945 26.6842 19.5945 23.9228H15.5945H11.5945C11.5945 22.2659 12.9377 20.9228 14.5945 20.9228V24.9228ZM12.0887 20.0995H16.0887C16.0887 21.7564 14.7455 23.0995 13.0887 23.0995V19.0995V15.0995C10.3272 15.0995 8.08867 17.3381 8.08867 20.0995H12.0887ZM13.2119 0.282919L15.9999 3.15124C14.8355 4.28302 12.9819 4.2829 11.8177 3.15099L14.606 0.283004L17.3943 -2.58498C15.4538 -4.47151 12.3646 -4.4717 10.424 -2.58541L13.2119 0.282919ZM0.303117 14.2667L3.09065 11.398C4.30289 12.5759 4.30315 14.5223 3.09122 15.7005L0.302927 12.8325L-2.48536 9.96452C-4.50525 11.9283 -4.50482 15.1722 -2.48442 17.1354L0.303117 14.2667ZM3.47398 16.3215L0.6852 13.454C1.94339 12.2303 3.9468 12.2299 5.20552 13.453L2.41799 16.3217L-0.369544 19.1905C1.47728 20.985 4.41671 20.9844 6.26275 19.189L3.47398 16.3215ZM4.75957 16.8645H8.75957C8.75957 12.6579 3.70084 10.5211 0.6852 13.454L3.47398 16.3215L6.26275 19.189C4.20741 21.1879 0.75957 19.7316 0.75957 16.8645H4.75957ZM5.75957 24.9237V20.9237C7.41643 20.9237 8.75957 22.2669 8.75957 23.9237H4.75957H0.75957C0.75957 26.6852 2.99814 28.9237 5.75957 28.9237V24.9237ZM22.9187 23.9237H18.9187C18.9187 22.2669 20.2619 20.9237 21.9187 20.9237V24.9237V28.9237C24.6802 28.9237 26.9187 26.6852 26.9187 23.9237H22.9187ZM24.3025 16.2821L27.0912 13.4145C24.0389 10.4462 18.9187 12.6089 18.9187 16.8667H22.9187H26.9187C26.9187 19.6825 23.5325 21.1129 21.5138 19.1497L24.3025 16.2821ZM25.4393 16.2822L22.651 13.4143C23.8871 12.2124 25.8552 12.2125 27.0912 13.4145L24.3025 16.2821L21.5138 19.1497C23.3827 20.9672 26.3586 20.9674 28.2277 19.1501L25.4393 16.2822ZM12.0887 23.9228H8.08867C8.08867 26.6842 10.3272 28.9228 13.0887 28.9228V24.9228V20.9228C14.7455 20.9228 16.0887 22.2659 16.0887 23.9228H12.0887ZM27.5133 14.2657L30.3017 17.1337C32.3211 15.1703 32.3211 11.9271 30.3016 9.96377L27.5133 12.8318L24.725 15.6997C23.5133 14.5217 23.5133 12.5758 24.725 11.3978L27.5133 14.2657Z" fill="#DBDBDB" mask="url(#path-1-inside-1_17_55)"/>
</svg>
