<svg width="21" height="26" viewBox="0 0 21 26" fill="none" xmlns="http://www.w3.org/2000/svg">
<path d="M10.833 0.0185547C16.2825 0.352585 20.6033 5.05185 20.6035 10.8008C20.6034 13.1891 19.4837 16.1251 17.5234 18.4287C14.7177 21.9935 11.7633 24.8072 10.4258 25.1025L10.3018 25.123C9.03084 24.9881 5.97653 22.1087 3.08008 18.4287C1.11977 16.1251 0.000136387 13.1891 0 10.8008C0.000277871 4.8663 4.6045 0.0502718 10.3018 0L10.833 0.0185547ZM10.3281 7.72559C8.6266 7.72559 7.2472 9.10514 7.24707 10.8066C7.24707 12.5082 8.62652 13.8877 10.3281 13.8877C12.0297 13.8877 13.4092 12.5082 13.4092 10.8066C13.409 9.10515 12.0296 7.72559 10.3281 7.72559Z" fill="#35C8BA"/>
</svg>
