<svg width="21" height="26" viewBox="0 0 21 26" fill="none" xmlns="http://www.w3.org/2000/svg">
<path d="M10.833 0.0185547C16.2827 0.352378 20.6033 5.05171 20.6035 10.8008C20.6034 13.1891 19.4828 16.1251 17.5225 18.4287C14.7165 21.9937 11.763 24.8076 10.4258 25.1025L10.3018 25.123C9.03086 24.9879 5.97733 22.1084 3.08105 18.4287C1.12075 16.1251 0.00013646 13.1891 0 10.8008C0.000277853 4.86616 4.60432 0.0500469 10.3018 0L10.833 0.0185547ZM10.3281 7.72559C8.6266 7.72559 7.2472 9.10514 7.24707 10.8066C7.24707 12.5082 8.62652 13.8877 10.3281 13.8877C12.0297 13.8877 13.4092 12.5082 13.4092 10.8066C13.409 9.10515 12.0296 7.72559 10.3281 7.72559Z" fill="#DBDBDB"/>
</svg>
