<svg width="61" height="70" viewBox="0 0 61 70" fill="none" xmlns="http://www.w3.org/2000/svg">
<path d="M12.6879 5.39193C16.0758 2.41425 22.5104 4.19626 27.0597 9.37204C31.6088 14.5478 32.5551 23.8713 30.5105 25.6687C28.6362 27.3161 19.3407 25.3312 14.7912 20.1556C10.2419 14.9797 9.30013 8.36969 12.6879 5.39193ZM16.6124 9.85534C15.2014 11.0957 16.0688 14.3889 18.5494 17.2111C21.03 20.0333 25.6569 21.7198 26.4379 21.0338C27.2896 20.2852 26.1403 15.5417 23.6596 12.7194C21.179 9.89719 18.0235 8.61501 16.6124 9.85534Z" fill="#C2DEE0"/>
<path d="M49.1128 5.39193C45.725 2.41441 39.2904 4.19632 34.7411 9.37204C30.1921 14.5477 29.2459 23.8711 31.2903 25.6687C33.1646 27.3161 42.4601 25.3312 47.0095 20.1556C51.5589 14.9797 52.5007 8.36969 49.1128 5.39193ZM45.1898 9.85525C46.6007 11.0956 45.7333 14.3889 43.2528 17.2111C40.7722 20.0332 36.1453 21.7197 35.3643 21.0337C34.5126 20.2851 35.6618 15.5416 38.1425 12.7193C40.6232 9.89717 43.7786 8.61493 45.1898 9.85525Z" fill="#C2DEE0"/>
<rect y="24" width="61" height="16" fill="#F49987"/>
<rect x="4" y="39" width="53" height="31" fill="#F49987"/>
<rect x="4" y="40" width="53" height="5" fill="#EA8D7D"/>
<rect x="24" y="24" width="14" height="16" fill="#C2DEE0"/>
<rect x="24" y="40" width="14" height="30" fill="#C2DEE0"/>
<rect x="24" y="40" width="14" height="5" fill="#A0CDD0"/>
</svg>
