<svg width="85" height="89" viewBox="0 0 85 89" fill="none" xmlns="http://www.w3.org/2000/svg">
<path d="M57 80.3813V20.3393L85 28.4001V88.3394L57 80.3813Z" fill="#FEF6D7"/>
<path d="M32.0938 31.0586L57 20.3394V79.7975L32.0938 88.3394L0 78.6251V22.3492L32.0938 31.0586Z" fill="#F9EECC"/>
<path d="M6 73.5559V29.3394L17.0976 32.8171L41 78.3585L32.8049 81.3394L6 73.5559Z" fill="#A5CE6E"/>
<path d="M57 52.7053V26.3394L27 37.226L38.3115 59.3394L57 52.7053Z" fill="#64BEC2"/>
<path d="M79 32.3708V58.3394L57 52.3079V26.3394L79 32.3708Z" fill="#6ECCD0"/>
<path d="M46.7143 77.3394L41 65.1727L57 59.3394V73.6727L46.7143 77.3394Z" fill="#EAD5A2"/>
<path d="M79 65.5182V79.3394L57 73.3231V59.3394L79 65.5182Z" fill="#F4E2B1"/>
<path d="M27.5381 0C37.2383 0.0837295 45.077 8.28392 45.0771 18.3877C45.077 22.4535 43.1713 27.4515 39.834 31.373C34.9015 37.6399 29.7001 42.5432 27.5381 42.7695C25.3755 42.5418 20.1749 37.6389 15.2432 31.373C11.9059 27.4515 9.99919 22.4534 9.99902 18.3877C9.99916 8.28424 17.8383 0.0842471 27.5381 0ZM27.499 10C23.3569 10 19.999 13.3579 19.999 17.5C19.999 21.6421 23.3569 25 27.499 25C31.6412 25 34.999 21.6421 34.999 17.5C34.999 13.3579 31.6412 10 27.499 10Z" fill="#F08068"/>
</svg>
