<svg width="61" height="68" viewBox="0 0 61 68" fill="none" xmlns="http://www.w3.org/2000/svg">
<ellipse cx="23.0355" cy="12.1201" rx="7.27908" ry="9.22017" transform="rotate(-38.3453 23.0355 12.1201)" fill="#B5E5E7"/>
<ellipse cx="7.27908" cy="9.22017" rx="7.27908" ry="9.22017" transform="matrix(-0.784286 -0.6204 -0.6204 0.784286 50 9.40479)" fill="#B5E5E7"/>
<ellipse cx="24.7628" cy="14.6277" rx="1.82366" ry="3.82118" transform="rotate(-38.3453 24.7628 14.6277)" fill="#88D1D4"/>
<ellipse cx="1.82366" cy="3.82118" rx="1.82366" ry="3.82118" transform="matrix(-0.784286 -0.6204 -0.6204 0.784286 41.583 12.7622)" fill="#88D1D4"/>
<path d="M61 45.7302C61 60.3658 61 68 30.5004 68C0.000701904 68 0 60.3658 0 45.7302C0 31.0947 17.1726 15.001 30.5004 15C42.2903 14.9991 61 31.0947 61 45.7302Z" fill="#B5E5E7"/>
<rect x="32.4434" y="27.1504" width="14.6115" height="28.077" rx="7.30576" transform="rotate(36.1391 32.4434 27.1504)" fill="#F08068"/>
<path d="M38.329 31.4136C41.6045 33.8057 42.3213 38.4001 39.9295 41.6758L35.9251 47.1594L24.0621 38.4963L28.0665 33.0128C30.4588 29.7373 35.0533 29.0215 38.329 31.4136Z" fill="white"/>
</svg>
